<?xml version="1.0" encoding="UTF-8" standalone="no"?>
<svg
   version="1.1"
   id="Layer_1"
   x="0px"
   y="0px"
   width="700"
   viewBox="0 0 700 700"
   enable-background="new 0 0 2816 1536"
   xml:space="preserve"
   sodipodi:docname="icon.svg"
   inkscape:version="1.4.3 (0d15f75042, 2025-12-25)"
   height="700"
   xmlns:inkscape="http://www.inkscape.org/namespaces/inkscape"
   xmlns:sodipodi="http://sodipodi.sourceforge.net/DTD/sodipodi-0.dtd"
   xmlns="http://www.w3.org/2000/svg"
   xmlns:svg="http://www.w3.org/2000/svg"><defs
   id="defs221"><linearGradient
     id="swatch7"
     inkscape:swatch="solid"><stop
       style="stop-color:#000000;stop-opacity:1;"
       offset="0"
       id="stop7" /></linearGradient></defs><sodipodi:namedview
   id="namedview221"
   pagecolor="#ffffff"
   bordercolor="#000000"
   borderopacity="0.25"
   inkscape:showpageshadow="2"
   inkscape:pageopacity="0.0"
   inkscape:pagecheckerboard="0"
   inkscape:deskcolor="#d1d1d1"
   inkscape:zoom="1.3692306"
   inkscape:cx="258.90452"
   inkscape:cy="288.11801"
   inkscape:window-width="1516"
   inkscape:window-height="839"
   inkscape:window-x="0"
   inkscape:window-y="0"
   inkscape:window-maximized="1"
   inkscape:current-layer="Layer_1" />





























































































































































































































<g
   id="g3"
   inkscape:label="Icon"
   transform="translate(15.548285,14.451485)"><path
     fill="#f7f7f6"
     opacity="1"
     stroke="none"
     d="m 238.61764,301.83669 c 3.97509,2.4801 23.20399,9.34067 26.53145,11.57663 0,-12.51214 0,-23.55267 0.21808,-35.50854 0.2434,-27.08197 0.328,-53.24878 0.2705,-79.41528 -0.032,-14.5561 -0.30084,-29.11158 -0.46295,-43.66736 0.0788,-20.64628 -0.0488,-41.18243 0.46421,-61.963016 0.17986,-14.90125 4.0261,-28.91702 14.36774,-40.12918 13.27903,-13.35903 23.60574,-15.07281 38.3103,-15.20779 17.60913,-0.16162 35.21918,-0.21283 52.82892,-0.304721 4.56427,2.131441 6.23003,6.306761 8.34295,10.560611 17.15823,34.54387 25.8089,42.0438 50.9825,57.718226 13.25635,8.25403 27.22644,15.48511 39.87415,24.56982 35.9649,25.8332 53.24762,69.99549 37.41913,114.54596 -3.64453,10.25788 -8.84424,19.99103 -13.71387,29.77369 -2.36139,4.74359 -6.47528,7.41357 -12.17755,7.07177 -7.30695,-0.43805 -11.612,-4.37927 -12.42365,-11.70709 -0.10943,-0.98871 -0.088,-1.99451 -0.0876,-2.99243 0.0102,-28.67816 -14.6994,-48.58209 -38.96057,-61.24274 -16.66931,-8.69891 -34.65235,-14.88025 -53.07363,-22.61755 0,7.8656 0,15.00445 0.0113,23.95892 0.0113,67.05646 0.0113,132.2973 0.0113,197.6803 9.28648,0 17.52505,0 26.66797,0.19659 8.3087,0.0576 15.71297,-0.0815 24.03799,-0.037 14.2514,0.22668 27.58502,0.11474 40.91186,0.36529 9.54163,0.17945 13.06836,4.20789 12.74561,13.8078 -0.0444,1.31922 -0.40583,2.62769 -0.62043,3.94116 -18.27288,24.89966 -36.5404,49.80329 -54.8255,74.69397 -2.59724,3.25114 -5.54764,7.89736 -7.60772,10.80603 -12.28202,16.4444 -24.56196,32.89045 -36.84739,49.3324 -3.96709,5.30927 -7.94859,10.60785 -12.43473,16.77771 -0.51135,0.86621 -22.69067,31.42432 -33.31244,47.02796 -9.55543,13.73611 -18.78153,17.8684 -30.64075,3.22253 -14.15759,-19.10535 -28.22314,-38.27887 -43.05243,-58.37073 -12.68967,-15.42843 -23.81959,-32.24094 -35.52038,-48.46655 -4.63922,-6.42627 -9.44574,-12.73181 -14.78784,-19.86023 -8.46938,-11.58926 -17.11617,-23.49001 -25.58155,-35.23218 -8.38794,-11.60479 -17.07037,-22.99902 -25.34411,-34.68365 -8.62079,-12.17468 -7.61859,-17.11389 4.6737,-25.15936 -0.86163,-2.06751 -1.65496,-4.23829 -2.64782,-6.31348 -14.98203,-31.31268 -4.61731,-72.5127 29.78186,-89.95953 1.18634,-0.60169 2.33844,-1.27112 4.65185,-2.45368 m 84.28766,95.16155 c -1.00378,1.784 -2.00751,3.56799 -4.25177,5.88623 -6.8324,6.59424 -13.66473,13.18848 -21.93201,19.94153 -20.13794,11.18689 -40.80693,8.53043 -62.51763,2.991 42.17048,57.95435 82.70159,116.91678 125.89373,174.20376 42.72736,-58.14703 84.52899,-115.03436 127.3235,-173.27276 -3.95459,0 -5.87958,-0.005 -7.8045,7.9e-4 -23.3178,0.0689 -46.63561,0.20502 -69.95332,0.18219 -11.98407,-0.0117 -15.59278,-3.56696 -15.68988,-15.35687 -0.10431,-12.65741 0.0373,-25.31671 0.0374,-37.97516 7.9e-4,-70.95435 -0.0184,-141.90875 -0.006,-212.8631 0.002,-12.88538 8.09577,-17.927 19.57892,-12.18079 2.96729,1.48487 5.65246,3.53205 8.61595,5.02607 9.19041,4.63318 18.38546,9.26727 27.70306,13.63556 12.33323,5.78192 25.05613,10.79132 37.11679,17.08142 15.65888,8.16668 28.02869,20.14776 36.84937,35.60321 1.01727,1.78247 2.13721,3.50628 4.2439,6.94635 4.45294,-32.78614 -3.10346,-58.95496 -28.97882,-77.80237 -10.19336,-7.42462 -21.10663,-13.94635 -32.08063,-20.19727 -28.01576,-15.958 -52.37868,-35.502496 -66.30629,-65.573266 -1.77057,-3.82281 -4.31689,-4.39841 -7.89416,-4.36502 -11.99079,0.11188 -23.98413,-0.0165 -35.97406,0.13623 -2.90795,0.0371 -24.75172,1.27612 -24.75598,30.13696 -0.0139,95.106016 -0.19568,190.212036 -1.19983,286.372256 -0.4458,2.22735 -0.89161,4.45465 -2.48352,7.51281 -1.47748,4.45862 -2.95496,8.91724 -5.53388,13.93024 m -88.21625,-2.00946 c 14.3993,13.4071 30.91242,14.52655 48.20899,7.33466 16.24237,-6.75348 23.80182,-21.22858 23.69678,-40.25867 -0.1554,-28.14093 -28.23981,-47.21631 -54.41639,-39.41327 -15.48224,4.61511 -28.27789,20.31189 -30.06506,36.40784 -1.50055,13.51452 2.81946,24.86889 12.57568,35.92944 z"
     id="path54"
     sodipodi:nodetypes="cccsccsscssssssscscccccsscscsccscscssccsccccccccssccsscsscccsssccccscssss"
     style="fill:#000000;stroke:#000000;stroke-opacity:1;fill-opacity:1" /><circle
     style="fill:none;stroke:#000000;stroke-width:3;stroke-dasharray:none;stroke-opacity:1"
     id="circle1"
     cy="366.79813"
     cx="223.16428"
     r="42.217041"
     inkscape:label="small_circle" /><circle
     style="fill:none;fill-opacity:1;stroke:#000000;stroke-width:4;stroke-dasharray:none;stroke-opacity:1"
     id="path222"
     cy="366.77737"
     cx="223.16431"
     r="65.914742"
     inkscape:label="big_circle" /></g></svg>
